<svg version="1" xmlns="http://www.w3.org/2000/svg" width="1436" height="1436" viewBox="0 0 1077.000000 1077.000000"><path d="M316.6 121.8c-.2.1-20.6.4-45.5.7-27.4.3-45.9.8-47 1.5-2.4 1.2-2.8 4.9-4.7 39.2-.6 11.2-.4 12.8 1 13.4.9.3 1.6 1.2 1.6 1.8 0 1.6-1.9 1.5 27.8 1.7 13.9.2 25.5.6 25.8 1 .2.4.7 5.4.9 11.1.5 11.1 1.3 26.2 2 39.8.3 4.7.7 13.7 1 20 .3 6.3.7 15.5 1 20.5.3 4.9.8 14.6 1 21.5.2 6.9.7 19.7 1 28.5.4 8.8.7 20.3.9 25.5.1 5.3.5 10.1.9 10.7.5.8 4.5 1.2 11.5 1.2H317c.8 0 8 .1 15.9.1 14.2.2 14.3.2 17.1-2.5 3.1-3 2.9-.4 1.6-27.5-.4-6.3-.9-17.1-1.1-24-.3-6.9-.7-18.8-1-26.5-.3-7.7-.8-17.8-1-22.5-.3-4.7-.7-13.9-1-20.5-.7-17.6-2.4-54.8-2.7-59.5-.2-2.4.7-2.9 5.5-3 2.8-.1 9-.3 13.7-.5 43.3-1.9 41.9-1.8 43-3.5.4-.7.7-11 .6-22.9-.1-20.8-.2-21.7-2.3-23.8-2.2-2.2-2.2-2.2-45.3-2-23.7.1-43.3.3-43.4.5zM486.4 123.8c-1.6.8-3.1 1.8-3.4 2.1-1.1 1.3-13.1 9.1-14.1 9.1-1.5 0-6.6 8.6-8.6 14.4-1.8 5.3-1.9 21-.8 90.6.2 12.9.4 34.7.5 48.5l.1 25 4.5 21c2.5 11.5 4.9 22.1 5.5 23.5l.9 2.5 34.8.2c40.4.3 43.2.3 45.2.2.8 0 9.8 0 20 .1s19 .1 19.5.1c1-.1 10.7-6 13-7.8.6-.5 2.5-1.5 4.3-2.2 1.7-.7 3.2-1.7 3.2-2 0-.4 1.6-1.5 3.6-2.5l3.7-1.7-.7-22.7c-.4-12.5-.9-25.9-1.1-29.7-.2-3.9-.6-13.8-.9-22-.4-8.3-.9-19.5-1.1-25-.3-5.5-.7-17-1.1-25.5-1.9-52.4-2.4-63.2-3.5-65.2-.5-1-.7-2.3-.4-2.8.3-.5-.2-1.7-1.2-2.7-1-1-2.4-3.1-3.1-4.7-.7-1.7-2.8-4.8-4.5-7-1.8-2.3-3.5-4.6-3.9-5.1-4.9-6.4-6-7-13.8-7-4.1.1-7.9-.1-8.4-.4-.6-.2-5.5-.6-11-.7-5.6-.1-18.9-.5-29.6-.9-41.2-1.3-44.6-1.3-47.6.3zm79.1 56.2c.3 3 .7 7.5 1 10 1.2 9.8 1.5 24.4 1.4 69.5-.1 25.8-.2 48.3-.3 50l-.1 3h-24.7c-13.7 0-24.8-.3-24.8-.8 0-.4-.8-2.6-1.8-5-4.2-9.5-4.3-10.5-4.2-47.4.3-78.6.5-89 1.5-89 1.3-.1 12.1-1.1 20-1.8 10.7-1.1 15.9-1.5 22.4-2 3.5-.3 6.7-.7 7-1.1.6-.6 1.6 5.1 2.6 14.6zM928.6 124.7c-.1.2-4 .5-8.7.8-22.7 1.3-22.7 1.3-25.1 5.6-1.8 3-1.7 3.2.9 8.7 1.5 3.1 3.2 6.2 3.8 6.8.6.6 2.6 4.6 4.5 8.7 1.8 4.2 3.7 7.4 4.2 7.1.4-.3.8-.1.8.5 0 1.4 7.1 16.5 8 17.1.4.3 2.4 3.9 4.4 8 2 4.1 4.8 9.5 6.2 12 1.4 2.5 3.3 6.3 4.1 8.5.9 2.2 2.1 4.4 2.8 5 1.9 1.6 7.5 14.1 8.1 18 .6 3.8 2.7 104 2.6 121-.1 4.4.1 8.7.4 9.6.3 1.3 3.1 1.5 18.7 1.6 10 0 19.8.1 21.7.2 14.9.3 16.8.1 18.4-1.4 3.3-3.3 3.6-5.3 3.1-22.2-.5-18.4-1.4-63.5-1.8-86.2-.2-11.6.1-14.7 1.3-16.1 3.1-3.7 4.7-5.7 12.4-15.4 4.3-5.4 8.6-10.8 9.5-11.8 3.3-4.1 4.7-5.7 6.5-8.3 2.3-3 4.4-5.5 9-10.5 1.8-1.9 3.6-4.2 4.2-5.1 1-1.8 6.3-8.3 11.1-13.8 1.8-2 3.3-3.9 3.3-4.3 0-.4.6-1.3 1.3-2 .6-.7 3.2-3.8 5.7-6.8s4.7-5.7 5.1-6c2.3-2 1-11-1.6-11-.8 0-1.5-.4-1.5-1 0-.5-1.6-1.2-3.5-1.6-1.9-.3-3.5-1-3.5-1.4 0-.7-2.9-2-5.3-2.4-.4 0-1.1-.6-1.5-1.1-.4-.6-1.4-1.1-2.2-1.3-.8-.2-3.8-1.4-6.7-2.8-2.8-1.3-5.6-2.4-6.1-2.4s-1.5-.7-2.2-1.5c-.7-.8-1.6-1.3-2-1-.5.3-1.1.1-1.5-.5-.4-.6-1.1-.8-1.6-.5-.5.4-.9.1-.9-.4 0-1.9-3.6-1.2-5.7 1.1-1.1 1.3-2.8 3.8-3.9 5.5-1 1.8-2.2 3.3-2.6 3.3-.4 0-.8.7-.8 1.5s-.4 1.5-.8 1.5c-.5 0-1.8 1.7-3 3.7-1.1 2.1-3.2 4.9-4.5 6.3-1.2 1.4-2.6 3.2-3 4-.4.8-2.3 3.5-4.2 6-1.9 2.5-3.8 5.2-4.2 6-.4.8-1.7 2.6-3 4s-2.3 2.8-2.3 3.3c0 .8-4.6 7-8.2 11.1-1 1.1-1.8 2.3-1.8 2.7 0 .3-.9 1.8-2.1 3.3l-2.1 2.6-1.8-2.2c-.9-1.3-3-5-4.5-8.3-1.6-3.3-3.2-6.2-3.6-6.5-.4-.3-2.2-3.7-4-7.5-1.8-3.9-3.6-7.2-4-7.5-.5-.3-2.4-3.9-4.3-8-2-4.1-3.6-7.1-3.6-6.5 0 .5-1.7-2.6-3.6-7-2-4.4-4.2-8.5-4.9-9-.6-.6-1.4-1.7-1.7-2.5-.4-1.2-2.3-1.5-9.2-1.5-4.8 0-8.9.1-9 .2zM5 126.5c-1.1 1.3-1.5 7-2.6 34-.3 8.8-.7 19.8-.9 24.5-1.4 35.3-1.7 53.9-.7 55.6.8 1.4 2.3 1.9 6.9 2.1 3.2.1 5.8.3 5.8.3 0 .1 1.4.3 3 .5 1.7.1 6.4.6 10.5 1s9.5.9 12 1.1c2.5.2 7.2.6 10.5.9 6.1.6 11.2 1.1 21.8 1.9 3.2.2 8.6.8 12 1.2 3.4.4 7.8.8 9.7.9 1.9.2 7.3.6 12 1s9.1.7 9.9.8c1.1 0 1.2 1.4.7 6.6-.3 3.6-.9 12.2-1.2 19.1-.4 6.9-.8 12.6-.9 12.8-.3.3-4 .6-19 1.6-6.3.4-16.8 1.4-24.5 2.2-2.5.3-7.6.7-11.5.9-7.2.5-13.4 1-24 2.1-3.3.3-8.2.8-11 .9C9 299.6 4.8 300 3.9 300.6c-1 .6-.2 22.2 1.5 43.6.1 1.6.3 4.7.4 7 .4 7.2.3 7.2 16.4 7 15.1-.1 58.5-.8 108.3-1.8 16.5-.3 31.6-.5 33.5-.4 5.7.1 9.6-4.6 9.2-11 0-.3-.3-7-.7-14.8-.3-7.9-.8-18.1-1-22.5-.3-4.5-.7-13.6-.9-20.2-.3-6.6-.7-16.3-1-21.5-1.2-21.3-1.9-35.6-1.7-37.9.1-2.4-5.8-16.1-7-16.1-.3 0-1.3-1.4-2-3.2-2.5-6.1-3.8-6.7-14.6-6.7-13.9-.1-13.4-.1-18.3-.1-28.7 0-64.2-.5-64.8-.9-1.1-.9-.9-16.7.3-16.9 1.2-.2 13.4-1.1 22.5-1.7 3.6-.2 10.3-.6 15-1 12.9-.8 24.8-1.6 32.5-2 19.1-1.1 19.7-1.2 22.3-6.2.7-1.2 1-2.8.8-3.5-.3-.7-.8-6.5-1.1-12.8-.4-6.3-.9-13.5-1.1-16-.2-2.5-.5-6.6-.7-9.2-.1-2.6-.5-5-.9-5.3-.4-.4-33.1-.8-72.7-.9-55.6-.2-72.3 0-73.1.9zM763.8 125.5c-.5.5-16.4 1.1-51.3 2-31.6.9-34.6 1.1-35.4 2.4-.5.7-.9 29.2-1 63.4-.1 34.2-.4 85-.6 113l-.4 50.7 2.5 2.5c1.4 1.4 2.8 2.5 3.2 2.6.4 0 12.2.2 26.2.3 34 .4 34 .4 33.5-15.9-.5-13.5-1.7-64.6-1.9-77l-.1-10 3-.2c1.7-.1 8.5-.4 15.2-.8 6.8-.3 13.2-.8 14.3-1 1.1-.2 2.1.2 2.1.8.1.7.2 1.6.3 2.2.6 3.4 1.7 10.6 2.1 14 .9 6.8 1.5 11.8 2.4 18 .5 3.3.9 6.7.9 7.5 0 1.5.8 10.4 1.8 19.5.8 7.8 1.5 15.5 1.9 21.5.2 3 .7 9 1.1 13.3.7 8.1 1.1 8.6 6.4 8.6.8 0 10.3 0 21 .1s20.7.1 22.1.1c1.6-.1 3.3-1.2 4.8-3.1 2.1-2.9 2.1-3.5 1.1-8.6-.6-3-1.3-6.7-1.5-8.2-.2-1.5-.9-5-1.5-7.7-.6-2.8-1.3-6.4-1.6-8.2-.2-1.8-1.2-7-2.3-11.7-1-4.7-1.6-8.7-1.3-9 .2-.3 0-1.1-.6-1.8-.5-.7-1.3-3.3-1.5-5.8-.3-2.5-1.1-7-1.8-10-.6-3-1.3-6.4-1.4-7.5-.1-1.1-.3-2-.5-2-.1 0-.3-.9-.4-2-.2-1.1-.7-4-1.1-6.5-.5-2.5-.9-5.2-1-6-.2-1.5-3-15.4-4.5-22.4-.8-3.8.4-8.6 2.2-8.6.4 0 .8-.7.8-1.5s.4-1.5.8-1.5c.5 0 1.4-1 2.1-2.3.6-1.2 2.5-3.1 4.2-4.2 5.1-3.5 5.7-11.1 2.4-32-.1-1.1-.6-3.9-.9-6.2-.3-2.3-1-5.9-1.5-8-1.7-6.3-6.1-24.7-6.6-26.8-1.6-7.8-4.4-18.4-5.4-20.3-.7-1.4-2.2-2.2-3.9-2.3-9.8-.5-12.7-.7-12.7-.9 0-.1-2.2-.3-5-.5-13.9-.7-29.1-1.7-29.6-2.1-.3-.2-.8-.1-1.1.1zm-4.2 50.7l25.6.2-.4 8.5c-.3 7.3-.8 9.6-3.6 15.2-1.7 3.6-3.2 7.2-3.2 8 0 1.5-.2 1.5-19 .4-4.7-.3-12.8-.7-18-1-5.2-.3-10-.6-10.6-.7-.7-.1-1.1-4.9-1-15.2.1-12.4.4-15.2 1.6-15.7.8-.4 1.8-.5 2.2-.2.4.2 12.3.5 26.4.5zM162.7 398.3c-1.3 1.1-2 5.6-3.3 21.2-.1 2.2-.6 6.9-1 10.5-.4 3.6-.8 7.6-1 9-.8 10.5-1.6 17.4-2.5 23.1-.6 3.7-.9 7.3-.8 8 .2.8-.1 4.1-.5 7.4-1.3 9.3-1.3 9.3-2 22-.4 6.6-.3 12.6.2 13.2.4.7 1.9 1.5 3.2 1.7 1.4.2 2.5.5 2.5.6 0 .1 1.1.3 2.5.5 1.4.1 4.8.6 7.5 1 2.8.4 6.1.9 7.5 1 1.4.2 2.7.4 3 .5.3.1.8.2 1.2.1.4 0 3 .4 5.7.9 2.8.5 6.9 1.2 9.3 1.5 5.2.7 8.3 1.3 8.3 1.5 0 .1 1.6.3 3.5.5 1.9.1 3.7.3 4 .5.3.1.8.2 1.2.1.4 0 3 .4 5.7.9 2.8.5 6.9 1.2 9.3 1.5 4.9.7 8.3 1.3 8.3 1.5 0 .1 2 .3 4.5.5 6 .6 12.5 1.4 12.5 1.5 0 .3 9.4 1.8 12.1 1.9 2.5.1 2.5-1.2-.2 18.1-1.6 11.1-2.2 15.8-2.3 19-.1 1.2-2.2 1.5-11.9 1.6-6.4.1-23.2.5-37.2.8-14 .4-32.5.8-41 1-19.3.4-21 .8-21.1 5-.4 12 0 52.8.5 53.3.4.4 3 .8 5.9.9 2.9.1 10.6.5 17.2.8 19.3 1 33.2 1.6 46 2.1 6.6.3 15.8.7 20.5.9 20.7 1.1 38.2 1.8 47 2.1 5.2.2 9.5.4 9.5.5 0 .9 13.6.4 15.6-.6 5-2.5 5.1-2.9 5.4-27.6.2-12.8.7-41.3 1-63.3.5-37.8.5-40.3-1.3-44.3-1-2.3-2.1-4-2.3-3.8-.3.3-1.9-2.9-3.8-6.9-2.7-6-3.7-7.4-5.5-7.4-1.1.1-6.6-.2-12.1-.6-5.5-.4-13.1-.8-17-1-3.8-.2-7.2-.4-7.5-.6-.3-.1-2.7-.3-5.5-.4-2.7-.1-5.2-.3-5.5-.4-.3-.1-3.6-.4-7.5-.6-10.5-.5-29.5-1.8-35.2-2.4-.9-.1-1.1-2.3-.6-8.4.3-4.5.8-8.4 1-8.7.3-.3 15.8-.6 34.6-.8 18.8-.1 36.1-.2 38.3-.2 2.3-.1 4.6 0 5 .1.5.1 3 .1 5.6 0 3.8-.1 5.3-.7 7.9-3.2 1.8-1.7 2.8-3.6 2.5-4.5-.3-.8-.6-10.8-.6-22.2-.1-11.4-.4-21.2-.8-21.8-.4-.5-3.4-1-6.7-1.1-3.3-.1-9.4-.4-13.5-.7-17.3-1.1-24.9-1.6-32.5-2.2-8.8-.6-18.6-1.3-28.5-1.9-9.8-.6-21.7-1.4-29-1.9-3.6-.3-11-.8-16.4-1.1-5.4-.3-11.6-.8-13.6-1-2.1-.2-4.4.1-5.3.8zM386.9 408.3c-4 2.7-4.5 4.5-5.3 18.9-.4 6.2-.9 15.6-1.2 20.8-.3 5.2-1.2 18.5-2 29.5-2.1 28.2-2.3 30.6-2.9 43.5-.3 6.3-1.3 20.5-2.1 31.5s-1.7 22.5-1.9 25.5c-.2 3-.6 11.1-1 18-.3 6.9-.7 14.3-1 16.5-2.7 26.8-1.6 31.8 7 32.2 15.4.8 20 1.1 20 1.3 0 .1 3.2.3 7 .5 6.4.2 11.7.6 31.5 2 35.6 2.6 33.5 2.6 38.1-1.3 1.8-1.5 1.9-3.2 1.9-23.7 0-12.1-.4-22.5-.8-23-.4-.6-2-1.1-3.7-1.1-5.6-.3-18-1.9-18-2.4 0-.1-1.1-.3-2.5-.5-3.8-.4-11.6-1.5-13.6-1.9-1.1-.2-3.8-.7-6.2-1.1-2.3-.4-4-1-3.8-1.4.4-.7 1.3-12.4 2.1-27.6.3-4.4.7-10.7 1-14 .2-3.3.7-11 1-17 .4-6.1.8-12.8 1-15 .6-5.1 1.4-17.5 2-28.5.2-4.7.7-11 .9-14 .3-3 .8-10.7 1.1-17 .4-6.3.8-13.1 1-15 .2-1.9.7-8 1-13.5.3-5.5.8-11.2 1-12.6.7-3.8-3-7.5-8-8.3-2.2-.3-7.8-.8-12.5-1.1-23.2-1.4-26.3-1.6-27-2-.4-.3-2.2.5-4.1 1.8zM573.3 427.8c-.6.4-1.6 2.9-2.2 5.7-.7 2.7-1.8 7.5-2.6 10.5-1.9 7.7-6 25.1-9.5 41-1.6 7.4-3.7 16.2-4.5 19.5-1.5 5.8-2 7.8-3 12.7-.2 1.3-1.2 5.2-2 8.8-2.5 10.4-3 12.8-4 20.4-.3 2.8-.8 5.3-1 5.6-.3.4-.7 2.5-1 4.6-.2 2.1-.7 5.5-1 7.4-1 7.3-1.5 10.6-2 14.5-.3 2.2-1 5.5-1.5 7.5-.5 1.9-.9 4.4-.9 5.5.1 1.6-2 16.4-3.6 25-.2 1.1-.6 3.6-.9 5.5-.2 1.9-.9 6.6-1.5 10.5-2.4 16.5-2.4 17.8.4 20.7 2.1 2.3 3.5 2.8 7.8 2.9 2.9.1 6.8.3 8.7.4 21.4 2 36.8 2.4 37.8 1.2.9-1 1.5-4 3.7-18.2.2-1.1 1.5-8.5 2.9-16.5 1.3-8 2.7-16.1 3.1-18 .3-1.9.8-4.9 1.2-6.5.3-1.7.7-4 .9-5.2.5-5 1.5-11 2.5-15.5.9-4 1.4-4.6 3.2-4.2 1.2.2 4.5.6 7.2.8 2.8.3 6.2.8 7.7 1.1 1.5.4 4.8.8 7.5 1 2.6.2 4.8.4 4.8.5 0 .1 2 .3 4.4.5 2.3.2 4.5.5 4.7.7.3.3.5 5.9 1.9 42.8 1.2 33.3 1.6 40.5 2.5 41.4.6.6 3.8 1.1 7.2 1.2 3.5.2 9.5.5 13.3.8 3.9.2 11.5.7 17 1 5.5.4 11.1.9 12.5 1.2 1.7.3 3.8-.3 6-1.9 3.4-2.2 3.5-2.5 3.4-8.8 0-5.8-.9-16.6-2-25.9-.2-1.9-.6-6.2-1-9.6-.3-3.3-.7-7.4-.9-9-.3-1.6-.7-6.1-1-9.9-.3-3.9-.8-8.8-1.1-11-.3-2.2-.7-6.6-1-9.9-.2-3.2-.6-6.2-.9-6.5-.2-.4-.7-5.2-1-10.7-.4-5.4-.8-10.5-1-11.1-.2-.7-.7-5-1.1-9.5-.3-4.6-.8-8.5-.9-8.8-.2-.3-.6-4.6-.9-9.5-.4-5-.9-10.6-1.3-12.5-.3-1.9-.7-5.1-.8-7-.1-1.9-.5-6.2-.9-9.5s-.9-8.1-1.1-10.8c-.6-5.6-1.5-14.2-2-17.7-.2-1.4-.6-6.2-1-10.8-.5-5.3-1.6-10.1-3-13-1.2-2.6-3-6.5-3.9-8.7l-1.8-4-7.1-.1c-4-.1-16.4-.4-27.7-.8s-26.3-.8-33.5-1c-7.1-.2-13-.5-13-.6 0-.6-20.3-.7-21.2-.2zm55.8 61.2c2.5.6 4.6 1.6 4.6 2.3 0 1.2 1.1 10.3 1.8 14.7.8 5.3 1.9 16.7 1.9 20l.1 3.5-6.5-.2c-3.6-.2-9-.5-12-.7-3-.2-6.5-.4-7.7-.5-1.7-.1-2.1-.6-1.7-2.4.6-2.4 5.1-27.1 6-32.7 1-6 1.1-6.1 5.1-5.6 2.1.3 5.9 1 8.4 1.6zM780.6 435.1c-1.3 1-2.9 1.9-3.5 1.9-.6 0-1.1 1.9-1.2 4.2-.1 5.7-1.1 21.6-3.4 51.3-.3 3.8-.8 10.4-1 14.5-.2 4.1-.7 12.2-1 18-.3 5.8-1 15.9-1.5 22.5-2.1 26.6-2.2 28.8-3.5 51.5-.5 9.3-1.2 19.9-3.1 43.5-2.1 27.5-1.8 28.2 12.2 29 4.8.3 11.9.7 15.8 1 21 1.4 22.8 1.4 25.7 0 1.6-.9 3.3-2.3 3.8-3.3.5-.9 1.2-8.5 1.6-16.7.3-8.3.8-17.9 1-21.5.1-3.6.6-15.3 1.1-26 .4-10.7.8-21.3 1-23.5.1-2.2.3-6.5.4-9.5.2-4.6.3-5 .9-2.5 1 4.1 3.8 9.2 5.3 9.7 1.8.7 7.8.2 20.3-1.7 1.1-.2 2.3-.4 2.6-.4 1.1-.2 4.4-3.5 7.2-7.4 1.6-2 3.8-4.8 5-6 4.6-4.8 13.2-15.1 14.4-17.1 1.1-1.9 1.2-1.6 1 2.4 0 2.5.2 14.6.7 27 .9 26.6 1.2 35.5 2.1 63.5 1 33.9 1.2 37.6 2.3 38.7.6.6 4.4 1.2 8.4 1.3 4 .2 7.3.4 7.3.5 0 .1 2.9.3 6.5.5 3.6.1 10.8.6 16 .9 22.8 1.6 20.2 1.9 23.7-2.7 1.2-1.6 2-3.4 1.7-4-.2-.7-.6-4.6-.9-8.7-.7-13-1.4-23.3-2-29.5-.3-3.3-.7-9.4-1-13.5-1-16.1-1.6-23.8-2.1-30-.7-9-1.2-16.3-1.8-24.5-.3-3.9-.8-10.4-1.1-14.5-.4-4.1-.8-10.7-1-14.5-.2-3.9-.7-10.6-1.1-15-.4-4.4-.8-9.6-1-11.5-.2-3.3-.6-9.3-1.9-27-.3-4.1-.7-9.5-1-12-.2-2.5-.7-8.8-1-14-.4-5.2-1.1-9.9-1.6-10.5-.6-.5-4-1.1-7.7-1.2-3.7-.1-6.7-.3-6.7-.4 0-.1-2.7-.3-18.5-1.4-18.1-1.2-19.6-1-21.8 2.6-4.7 7.4-14.2 24.9-14.2 25.9 0 .6-.3 1-.8 1-.4 0-1.3 1.5-2.1 3.2-.8 1.8-1.7 3.5-2 3.8-.3.3-1.3 1.9-2.2 3.5-2.4 4.7-4.3 8-5 8.5-.3.3-1.1 2-1.9 3.8l-1.3 3.4-2.8-5.8c-1.5-3.3-2.5-6.2-2.3-6.6.2-.3-.7-2.8-2-5.5-5.2-10.5-8.6-18.3-8.6-19.8 0-.8-.4-2.3-1-3.3-1.9-3.3-9-19.3-9-20.3 0-1.3-3.4-2.5-9.3-3.3-2.7-.4-5.9-.9-7-1.2-1.2-.2-3.8-.6-5.7-.8-3.3-.4-10.9-1.4-15.7-2.1-1.2-.2-3.3.5-4.7 1.6zM586.8 718.9l-2.8 2.6-.1 113.8-.1 113.9 2.6 2.7 2.7 2.8 49-.1 49.1-.1 2.4-3c1.3-1.7 2.1-3.8 1.9-5-.2-1.1-.7-6.5-1.1-12-.4-5.5-.8-11.6-1-13.5-.1-1.9-.4-6-.4-9.1-.1-3.1-.6-6.2-1-6.9-.5-.8-3.3-1.5-7.2-1.6-9.6-.5-19.6-1.2-26.3-1.9-3.3-.4-6.9-.8-8-.9-1.1-.1-2.4-.4-3-.8-.5-.3-1.7-.4-2.5-.3-1.3.2-1.5-10.1-1.4-87.9 0-91.1 0-91.8-3.8-94.3-.7-.4-11.4-.8-23.7-.8l-22.5-.1-2.8 2.5zM774.2 717.4c-.9.5-2.3 1.6-3 2.3-.7.7-1.7 1.3-2.2 1.3-.5 0-1.5.6-2.2 1.2-.7.7-3.3 2.6-5.8 4.3-8.7 5.8-12.5 11.5-14.5 21.6-.7 4.1-1.2 7.6-1 7.9.2.3.6 16.5.9 36 .3 19.5.9 48.3 1.2 64 .3 15.7.6 33.7.6 40 0 9.8.7 14.7 4.5 32.5 2.4 11.5 4.9 22.2 5.4 23.7l1.1 2.6 14.6.1c8.1.1 15.6.1 16.7.1H834c.8 0 10.4 0 21.3-.1s20 .1 20.4.4c.3.3 3.1-.7 6.2-2.4 6.2-3.2 6.4-3.4 17.4-10.4l7.8-5-.5-10c-.3-5.5-.8-16.1-1.1-23.5-.3-7.4-.8-17.6-1-22.5-1-19.1-1.4-27.5-2-42.5-.3-8.5-.8-19.3-1-24-.3-4.7-.7-13.5-1-19.7-.2-6.2-.7-16.5-1.1-23-.3-6.5-.7-14.3-.8-17.3-.1-4.1-1-7.4-3.8-13-2-4.1-4.6-8.5-5.7-9.7-1.2-1.2-2.1-2.6-2.1-3.2 0-.5-.7-1.1-1.5-1.5-.8-.3-1.5-1.3-1.5-2.1 0-.9-.4-1.3-1-1-.5.3-1 .1-1-.4 0-2.6-3.9-4.8-8.6-5-20.8-.7-36.8-1.1-61.4-1.6-15.7-.3-30.2-.7-32.3-.8-2.1-.1-4.5.2-5.5.7zm77.9 51.1c.1 2.2.4 4.4.7 4.8.2.5.6 3.6.8 7 .3 3.4.7 8.2 1 10.7.3 2.5.8 29.4 1.1 59.7l.5 55.3-2.4.1c-2.6.1-46 .1-46.9 0-.7-.1-5.3-10.8-5.4-12.6-.1-.6-.5-2.2-.9-3.6s-.8-30.3-.9-64.2l-.2-61.7 3-.1c5.9-.2 11.1-.6 16-1.3 2.8-.4 7.9-.9 11.5-1.1 13.8-.9 19.3-1.5 19.9-2 .8-.8 2 4.1 2.2 9zM168.5 719.1c-1.3 1.1-2.8 1.9-3.3 1.9-.6 0-1.7.6-2.4 1.2-.7.7-3.3 2.6-5.8 4.3-13.4 8.8-16.1 16.6-15.5 44 .2 8.8.6 31.5.9 50.5.4 19 .8 45.5 1.1 59 .4 26.7 1.3 38.7 2.6 39.6.5.3.9 2.3.9 4.4 0 2.1.5 4.2 1 4.5.6.3 1 2.4 1 4.5s.5 4.2 1 4.5c.6.4 1 1.2.8 1.8-.1.7.4 3 1 5.1.6 2.2.9 4.3.6 4.7-.2.4.4 2 1.3 3.6l1.8 2.8 59-.1c52-.1 59.4-.3 62.7-1.8 3.4-1.4 9.8-5.3 12.4-7.5.5-.4 2.1-1.4 3.4-2.1 1.4-.7 3.1-1.9 3.8-2.7.7-.7 2-1.3 2.7-1.3 1.5 0 3.9-3.6 3.1-4.8-.2-.4-.7-8.4-1-17.9-.4-9.5-.9-20-1.1-23.5-.2-3.5-.6-12.6-.9-20.3-.4-7.7-.9-18.5-1.2-24-.3-5.5-.7-14.7-.9-20.5-.2-5.8-.7-15.2-.9-21-.7-12.5-1.3-26.6-2.1-44.9-.6-12.3-.9-13.8-3.9-20.2-1.7-3.8-3.5-6.6-3.9-6.3-.4.4-.7.1-.7-.8 0-.8-.8-2.4-1.7-3.6-1-1.2-2.5-3-3.3-4-7.1-9-6.2-8.5-17.3-8.8-5.6-.1-19.2-.5-30.2-.9-11-.3-29.6-.8-41.3-.9-19.5-.3-21.5-.2-23.7 1.5zm78.6 43.3c.1 1.1.2 2.5.3 3.1.1.5.6 4.6 1 9 .5 4.4 1 9.1 1.1 10.5 1.7 14.8 2.9 115.6 1.4 119.8-.5 1.5-2.9 1.7-24.7 1.8h-24l-2.5-5.5c-1.3-3.1-2.9-7.2-3.5-9.1-.7-2.3-1.1-24.9-1-65.5v-62l5.1-.2c2.9-.2 7.2-.5 9.7-.8 5.4-.7 11.7-1.2 22.9-1.9 4.6-.3 8.6-.8 8.8-1 .2-.2 1.5-.4 2.8-.4 1.8 0 2.5.6 2.6 2.2zM365.1 722.4c-2.7 1.2-3 3-3.1 19 0 7.6-.2 14.2-.4 14.5-.2.3-.7 8.9-1 19.1-1.5 46.5-1.7 61-.8 62.6.6 1 2.5 1.7 5.3 1.9 7.4.5 21.2 1.6 24.9 2 1.9.2 7.3.7 12 1 12.5 1 16.9 1.3 23 2 3 .3 8.4.8 12 1 3.6.2 6.5.4 6.5.5 0 .1 1.8.3 4 .5 7.6.6 22 1.6 25 1.8l3 .2-.3 6.5c-.4 9.5-2.2 31.4-2.7 31.9-.2.2-2.6.5-5.2.7-4.4.3-12.2.9-22.8 1.9-15.2 1.5-18.4 1.8-22 2-2.2.1-6.5.5-9.5.9-3 .3-8.6.9-12.5 1.2-3.8.3-8.8.8-11 1-4.2.3-15.6 1.3-21.6 1.8-5.2.4-5.8 1.1-5.4 6.4.2 2.6.6 8.5 1 13.2.3 4.7.8 10.7 1 13.5.3 2.7.7 8.8.9 13.5.3 4.7.8 9.3 1.1 10.2.7 1.8-3.3 1.8 72.5.3 98.8-2 89.4-1.5 92.5-5.1 1.4-1.6 2.3-3.6 2.1-4.4-.3-.8-.8-8-1.1-16-.3-8-.8-17.4-1-21-.3-6-1.2-22.2-2-38-.2-3.6-.6-12.6-1-20-1.1-25.3-1.4-28.2-4.1-33.5-4.2-8.5-6.9-13-8.1-13.8-.7-.4-1.3-1.4-1.3-2.1 0-1.2-8.5-2.1-17-1.7h-21.5c-11 0-21.1 0-22.5.1-3.2.3-5.6.3-10 .1-1.9-.1-7.3-.1-12-.1-4.7.1-9.3.1-10.2 0-1.6 0-1.8-1.1-1.8-8.4 0-4.7.4-8.7.8-9 .5-.3 4.4-.8 8.8-1.1 4.3-.3 9.9-.7 12.4-1 2.5-.2 9.5-.7 15.5-1 6.1-.4 13-.8 15.5-1.1 5.7-.5 17.6-1.3 26-1.8 13.3-.7 14.5-2.2 13.6-16.4-2-30-2.4-34-3.3-35.4-.6-1-15.3-1.3-71.5-1.3-38.9 0-71.6.4-72.7.9z"/></svg>